<svg version="1.1" xmlns="http://www.w3.org/2000/svg" xmlns:xlink="http://www.w3.org/1999/xlink" width="16.26278" height="16.25236" viewBox="0,0,16.26278,16.25236"><g transform="translate(-231.89416,-171.87382)"><g data-paper-data="{&quot;isPaintingLayer&quot;:true}" fill-rule="nonzero" stroke="none" stroke-linecap="butt" stroke-linejoin="miter" stroke-miterlimit="10" stroke-dasharray="" stroke-dashoffset="0" style="mix-blend-mode: normal"><path d="M235.81209,180c0,-2.31292 1.87499,-4.18791 4.18791,-4.18791c2.31292,0 4.18791,1.87499 4.18791,4.18791c0,2.31292 -1.87499,4.18791 -4.18791,4.18791c-2.31292,0 -4.18791,-1.87499 -4.18791,-4.18791z" fill="#fff7b2" stroke-width="NaN"/><path d="M244.42045,180.10295c0,-0.74711 0.83644,-1.35277 1.86825,-1.35277c1.03181,0 1.86825,0.60566 1.86825,1.35277c0,0.74711 -0.83644,1.35277 -1.86825,1.35277c-1.03181,0 -1.86825,-0.60566 -1.86825,-1.35277z" fill="#fff7b2" stroke-width="NaN"/><path d="M231.89416,179.94816c0,-0.74712 0.83645,-1.35277 1.86825,-1.35277c1.0318,0 1.86825,0.60565 1.86825,1.35277c0,0.74712 -0.83644,1.35277 -1.86825,1.35277c-1.0318,0 -1.86825,-0.60566 -1.86825,-1.35277z" fill="#fff7b2" stroke-width="NaN"/><path d="M240.1449,184.39319c0.74616,-0.03777 1.39333,0.76698 1.44549,1.79747c0.05216,1.03049 -0.51043,1.89648 -1.25659,1.93425c-0.74616,0.03777 -1.39333,-0.76698 -1.44549,-1.79746c-0.05216,-1.03049 0.51043,-1.89648 1.25659,-1.93425z" fill="#fff7b2" stroke-width="NaN"/><path d="M239.6662,171.8751c0.74616,-0.03777 1.39333,0.76698 1.44549,1.79747c0.05216,1.03049 -0.51043,1.89648 -1.25659,1.93425c-0.74616,0.03777 -1.39333,-0.76698 -1.44549,-1.79746c-0.05216,-1.03049 0.51043,-1.89648 1.25659,-1.93425z" fill="#fff7b2" stroke-width="NaN"/><path d="M236.94208,183.15757c0.54576,0.51022 0.41696,1.53485 -0.28768,2.28857c-0.70464,0.75372 -1.7183,0.95112 -2.26406,0.44089c-0.54576,-0.51022 -0.41696,-1.53485 0.28769,-2.28857c0.70464,-0.75372 1.71829,-0.95112 2.26405,-0.4409z" fill="#fff7b2" stroke-width="NaN"/><path d="M245.60966,174.11296c0.54576,0.51022 0.41695,1.53485 -0.28769,2.28857c-0.70464,0.75372 -1.71829,0.95112 -2.26405,0.44089c-0.54576,-0.51022 -0.41696,-1.53485 0.28768,-2.28857c0.70464,-0.75372 1.7183,-0.95112 2.26406,-0.4409z" fill="#fff7b2" stroke-width="NaN"/><path d="M237.08125,176.71336c-0.54981,0.50586 -1.56185,0.30039 -2.26047,-0.45892c-0.69862,-0.75931 -0.81925,-1.78494 -0.26944,-2.2908c0.54981,-0.50586 1.56185,-0.30039 2.26047,0.45892c0.69862,0.75931 0.81926,1.78494 0.26945,2.29079z" fill="#fff7b2" stroke-width="NaN"/><path d="M245.44866,186.03636c-0.54981,0.50586 -1.56185,0.30038 -2.26047,-0.45893c-0.69862,-0.75931 -0.81925,-1.78493 -0.26944,-2.29079c0.54981,-0.50586 1.56185,-0.30039 2.26047,0.45892c0.69862,0.75931 0.81926,1.78494 0.26945,2.2908z" fill="#fff7b2" stroke-width="NaN"/></g></g></svg>